<svg width="183" height="47" viewBox="0 0 183 47" fill="none" xmlns="http://www.w3.org/2000/svg">
<g clipPath="url(#clip0)">
<path d="M33.9962 13.6797C33.9962 13.2677 34.1315 12.9106 34.4292 12.6084C34.727 12.3063 35.0788 12.1689 35.4848 12.1689C35.7826 12.1689 36.0532 12.2513 36.2969 12.4436C36.5675 12.6359 36.7299 12.8556 36.8382 13.1029L44.0651 29.6669L51.2378 13.1853C51.3461 12.9381 51.5356 12.7183 51.8062 12.526C52.0769 12.3337 52.3476 12.2513 52.6182 12.2513C53.0243 12.2513 53.3761 12.3887 53.6739 12.6908C53.9716 12.993 54.1069 13.3501 54.1069 13.7621C54.1069 13.9819 54.0528 14.2016 53.9445 14.3939L45.3914 34.007C45.2831 34.2542 45.0936 34.474 44.823 34.6388C44.5523 34.8311 44.2816 34.9135 44.0109 34.9135C43.7403 34.9135 43.4696 34.8311 43.1989 34.6388C42.9283 34.4465 42.7388 34.2542 42.6305 34.007L34.0774 14.3115C34.0503 14.1467 33.9962 13.9544 33.9962 13.6797Z" fill="#1C1C54"/>
<path d="M60.2511 10.6306C59.6286 10.6306 59.0873 10.4109 58.6271 9.94389C58.167 9.50438 57.9234 8.95499 57.9234 8.3232C57.9234 7.69141 58.167 7.14202 58.6271 6.70251C59.0873 6.263 59.6286 6.01578 60.2511 6.01578C60.8737 6.01578 61.415 6.23553 61.8752 6.70251C62.3353 7.14202 62.5518 7.69141 62.5518 8.3232C62.5518 8.95499 62.3353 9.50438 61.8752 9.94389C61.415 10.4109 60.8737 10.6306 60.2511 10.6306ZM58.7083 13.7347C58.7083 13.3501 58.8707 13.0205 59.2226 12.7458C59.5745 12.4711 59.8993 12.3337 60.197 12.3337C60.7113 12.3337 61.1173 12.4711 61.4692 12.7732C61.794 13.0754 61.9564 13.46 61.9564 13.9544L62.0105 33.2928C62.0105 33.7323 61.8481 34.1169 61.5233 34.4465C61.1985 34.7762 60.8195 34.9135 60.3594 34.9135C59.8993 34.9135 59.5203 34.7487 59.1955 34.4191C58.8707 34.0894 58.7083 33.7048 58.7083 33.2653V13.7347Z" fill="#1C1C54"/>
<path d="M71.3486 7.03214C71.3486 6.51022 71.5651 6.07071 71.9711 5.71361C72.1877 5.52133 72.4584 5.41145 72.7561 5.38398C73.2974 5.32904 73.7305 5.49386 74.0824 5.85096C74.4072 6.18059 74.5425 6.56516 74.5425 7.03214L74.5154 12.0316L78.6838 12.059C79.171 12.059 79.5499 12.2513 79.8747 12.6634C80.0371 12.8556 80.1454 13.1303 80.1725 13.3776C80.2266 13.8995 80.0913 14.339 79.7394 14.6961C79.4416 14.9982 79.0898 15.1356 78.6838 15.1356L74.5425 15.1081L74.5154 28.8977C74.5154 29.6669 74.6237 30.2987 74.8673 30.7931C75.0839 31.2601 75.544 31.5073 76.2477 31.5073C76.8703 31.5073 77.3846 31.3974 77.7906 31.1502C78.1966 30.903 78.6567 30.7931 79.198 30.7931C79.6311 30.7931 80.0101 30.9579 80.3349 31.2875C80.6597 31.6172 80.795 32.0017 80.795 32.4687C80.795 33.1005 80.5514 33.5675 80.0371 33.9246C79.5229 34.2817 78.9274 34.5289 78.2507 34.6663C77.574 34.8036 76.9515 34.886 76.4101 34.886C74.732 34.886 73.4869 34.3366 72.6208 33.2104C71.7817 32.1116 71.3486 30.6558 71.3486 28.8977L71.3757 15.1905H68.1276C67.6946 15.1905 67.2886 15.0257 66.9908 14.7235C66.666 14.3664 66.5307 13.9269 66.5848 13.405C66.6119 13.1578 66.7201 12.9106 66.8555 12.6908C67.1803 12.2788 67.5592 12.059 68.0464 12.059H71.3215L71.3486 7.03214Z" fill="#1C1C54"/>
<path d="M101.745 15.4103C100.094 13.7347 97.9014 12.6084 95.4383 12.3887C95.0864 12.3337 94.7074 12.3063 94.3285 12.3063C92.8398 12.3063 91.4323 12.6084 90.1873 13.2402C88.9151 13.872 87.8053 14.6961 86.858 15.7674C85.9648 16.7563 85.2611 17.8825 84.7468 19.1461C84.7197 19.2285 84.6656 19.3109 84.6385 19.4208C84.1242 20.7943 83.8536 22.2227 83.8536 23.6786C83.8536 25.1619 84.1242 26.5903 84.6385 27.9363C85.1528 29.2823 85.8836 30.4909 86.8309 31.5622C87.7783 32.6336 88.861 33.4576 90.1331 34.062C90.3496 34.1718 90.5391 34.2542 90.7557 34.3366C91.7842 34.6663 92.8939 34.8586 94.0308 34.8586C95.0322 34.8586 96.0337 34.7212 96.954 34.4465C98.7675 33.9246 100.364 32.9082 101.637 31.5622V33.3752C101.664 33.7873 101.826 34.1444 102.097 34.4465C102.394 34.7487 102.746 34.886 103.152 34.886C103.558 34.886 103.91 34.7487 104.208 34.4465C104.506 34.1444 104.641 33.7873 104.695 33.3752V22.7171C104.695 19.8878 103.558 17.3057 101.745 15.4103ZM100.743 27.5517C100.067 28.8153 99.1464 29.8317 98.0096 30.6008C96.8728 31.37 95.6007 31.7545 94.2473 31.7545C92.894 31.7545 91.6759 31.37 90.5933 30.6008C89.5106 29.8317 88.6715 28.8428 88.0219 27.6067C87.3993 26.3705 87.0745 25.052 87.0745 23.6786C87.0745 22.2776 87.3993 20.9591 88.0219 19.723C88.6444 18.4869 89.5106 17.4705 90.6203 16.7013C91.7301 15.9322 92.9752 15.5476 94.3556 15.5476C95.736 15.5476 96.9811 15.9322 98.0908 16.6739C99.2006 17.4156 100.094 18.4044 100.77 19.6131C101.447 20.8217 101.772 22.1403 101.772 23.5412C101.772 24.9696 101.42 26.2881 100.743 27.5517Z" fill="#1C1C54"/>
<path d="M180.05 15.4103C178.399 13.7347 176.206 12.6084 173.743 12.3887C173.391 12.3337 173.012 12.3063 172.633 12.3063C171.145 12.3063 169.737 12.6084 168.492 13.2402C167.22 13.872 166.11 14.6961 165.163 15.7674C164.27 16.7563 163.566 17.8825 163.052 19.1461C163.025 19.2285 162.97 19.3109 162.943 19.4208C162.429 20.7943 162.158 22.2227 162.158 23.6786C162.158 25.1619 162.429 26.5903 162.943 27.9363C163.458 29.2823 164.188 30.4909 165.136 31.5622C166.083 32.6336 167.166 33.4576 168.438 34.062C168.654 34.1718 168.844 34.2542 169.06 34.3366C170.089 34.6663 171.199 34.8586 172.336 34.8586C173.337 34.8586 174.339 34.7212 175.259 34.4465C177.072 33.9246 178.669 32.9082 179.941 31.5622V33.3752C179.968 33.7873 180.131 34.1444 180.402 34.4465C180.699 34.7487 181.051 34.886 181.457 34.886C181.863 34.886 182.215 34.7487 182.513 34.4465C182.811 34.1444 182.946 33.7873 183 33.3752V22.7171C183 19.8878 181.863 17.3057 180.05 15.4103ZM179.048 27.5517C178.372 28.8153 177.451 29.8317 176.314 30.6008C175.178 31.37 173.905 31.7545 172.552 31.7545C171.199 31.7545 169.981 31.37 168.898 30.6008C167.815 29.8317 166.976 28.8428 166.327 27.6067C165.704 26.3705 165.379 25.052 165.379 23.6786C165.379 22.2776 165.704 20.9591 166.327 19.723C166.949 18.4869 167.815 17.4705 168.925 16.7013C170.035 15.9322 171.28 15.5476 172.66 15.5476C174.041 15.5476 175.286 15.9322 176.396 16.6739C177.505 17.4156 178.399 18.4044 179.075 19.6131C179.752 20.8217 180.077 22.1403 180.077 23.5412C180.077 24.9696 179.725 26.2881 179.048 27.5517Z" fill="#1C1C54"/>
<path d="M112.301 5.96083C112.842 5.96083 113.248 6.12565 113.546 6.45528C113.844 6.78491 114.006 7.14201 114.006 7.49911V33.54C114.006 33.8971 113.844 34.1993 113.492 34.474C113.167 34.7212 112.842 34.8586 112.518 34.8586C112.03 34.8586 111.624 34.7212 111.272 34.419C110.948 34.1444 110.758 33.7598 110.758 33.3203V7.55405C110.758 7.16948 110.921 6.78491 111.218 6.45528C111.543 6.12565 111.895 5.96083 112.301 5.96083Z" fill="#1C1C54"/>
<path d="M129.353 23.6511C129.353 21.6458 129.813 19.7779 130.761 18.0748C131.708 16.3717 132.98 14.9982 134.577 13.9544C136.174 12.9106 137.961 12.3886 139.936 12.3886C141.398 12.3886 142.724 12.6633 143.915 13.2127C145.106 13.7621 146.162 14.4763 147.028 15.3828C147.894 16.2893 148.571 17.2782 149.031 18.3495C149.139 18.5692 149.193 18.8165 149.193 19.0362C149.193 19.4757 149.031 19.8603 148.733 20.1899C148.408 20.4921 148.029 20.6569 147.596 20.6569C147.299 20.6569 147.028 20.5745 146.73 20.3822C146.432 20.1899 146.243 19.9702 146.135 19.6955C145.648 18.5967 144.863 17.6627 143.78 16.8387C142.697 16.0146 141.398 15.63 139.936 15.63C138.556 15.63 137.311 16.0146 136.201 16.7563C135.091 17.4979 134.198 18.4868 133.549 19.7229C132.899 20.9591 132.574 22.2776 132.574 23.6785C132.574 25.1069 132.899 26.4255 133.549 27.6341C134.198 28.8702 135.091 29.8317 136.201 30.6008C137.311 31.3425 138.583 31.727 139.963 31.727C141.452 31.727 142.724 31.315 143.834 30.5184C144.944 29.7218 145.702 28.7604 146.189 27.689C146.297 27.4144 146.514 27.1946 146.784 27.0023C147.082 26.81 147.353 26.7276 147.651 26.7276C148.084 26.7276 148.463 26.8924 148.787 27.1946C149.112 27.5242 149.247 27.9088 149.247 28.3483C149.247 28.5955 149.193 28.8153 149.085 29.035C148.625 30.1063 147.948 31.0678 147.055 31.9743C146.189 32.8808 145.133 33.595 143.942 34.1443C142.724 34.6937 141.398 34.9684 139.936 34.9684C137.961 34.9684 136.174 34.4465 134.55 33.4027C132.953 32.3588 131.681 30.9854 130.761 29.2548C129.813 27.5242 129.353 25.6563 129.353 23.6511Z" fill="#1C1C54"/>
<path d="M122.641 10.5757C122.018 10.5757 121.477 10.3559 121.017 9.88894C120.556 9.44943 120.313 8.90005 120.313 8.26825C120.313 7.63646 120.556 7.08707 121.017 6.64756C121.477 6.20805 122.018 5.96083 122.641 5.96083C123.263 5.96083 123.804 6.18059 124.265 6.64756C124.725 7.08707 124.941 7.63646 124.941 8.26825C124.941 8.90005 124.725 9.44943 124.265 9.88894C123.832 10.3285 123.29 10.5757 122.641 10.5757ZM121.125 13.6797C121.125 13.2951 121.287 12.9655 121.639 12.6908C121.991 12.4161 122.316 12.2788 122.614 12.2788C123.128 12.2788 123.534 12.4161 123.886 12.7183C124.21 13.0204 124.373 13.405 124.373 13.8995L124.427 33.2379C124.427 33.6774 124.265 34.0619 123.94 34.3916C123.615 34.7212 123.236 34.8586 122.776 34.8586C122.316 34.8586 121.937 34.6937 121.612 34.3641C121.287 34.0345 121.125 33.6499 121.125 33.2104V13.6797Z" fill="#1C1C54"/>
<path d="M155.527 10.5757C154.904 10.5757 154.363 10.3559 153.903 9.88894C153.443 9.44943 153.199 8.90005 153.199 8.26825C153.199 7.63646 153.443 7.08707 153.903 6.64756C154.363 6.20805 154.904 5.96083 155.527 5.96083C156.15 5.96083 156.691 6.18059 157.151 6.64756C157.611 7.08707 157.828 7.63646 157.828 8.26825C157.828 8.90005 157.611 9.44943 157.151 9.88894C156.718 10.3285 156.177 10.5757 155.527 10.5757ZM154.011 13.6797C154.011 13.2951 154.174 12.9655 154.526 12.6908C154.877 12.4161 155.202 12.2788 155.5 12.2788C156.014 12.2788 156.42 12.4161 156.772 12.7183C157.097 13.0204 157.259 13.405 157.259 13.8995L157.313 33.2379C157.313 33.6774 157.151 34.0619 156.826 34.3916C156.501 34.7212 156.122 34.8586 155.662 34.8586C155.202 34.8586 154.823 34.6937 154.498 34.3641C154.174 34.0345 154.011 33.6499 154.011 33.2104V13.6797Z" fill="#1C1C54"/>
<path d="M21.9513 7.52661C21.0852 9.80656 19.38 11.0152 16.9981 11.18C15.753 11.2624 14.562 11.4822 13.5335 12.2239C11.9095 13.405 11.0163 14.9708 11.0163 17.031C10.9892 20.8492 10.9892 24.6675 10.9892 28.4857C10.9892 31.6172 8.55317 34.0894 5.4946 34.0894C2.43603 34.0894 -3.47942e-06 31.6172 -3.47942e-06 28.4582V22.7446C-3.47942e-06 20.6844 -0.0812045 18.6517 0.0270635 16.5915C0.135332 13.8446 2.40896 11.6195 5.11566 11.4822C6.41488 11.4273 7.68703 11.2075 8.7697 10.4109C10.3667 9.22971 11.2057 7.63649 11.2599 5.63123C11.3411 3.29634 12.3967 1.5383 14.4808 0.549404C16.5379 -0.46696 18.8928 -0.0274513 20.5438 1.56577C22.1679 3.10405 22.7633 5.43894 21.9513 7.52661Z" fill="url(#paint0_linear)"/>
<path d="M24.6851 30.1339C24.6851 31.2601 24.3874 32.3314 23.7648 33.2654C22.7092 34.8036 21.2747 35.4904 19.4882 35.5453C16.565 35.6277 14.2914 37.8253 13.8854 40.8469C13.8312 41.2864 13.8312 41.7534 13.7771 42.2204C13.5335 44.6102 11.8012 46.533 9.55465 46.9176C7.25395 47.3022 5.08859 46.0386 4.08711 43.7312C3.1939 41.616 3.78938 39.0339 5.52167 37.5506C6.57728 36.6441 7.79529 36.3419 9.12158 36.287C12.0448 36.1771 14.535 33.4576 14.535 30.3811C14.535 28.4582 14.535 26.5354 14.535 24.64C14.535 23.2665 14.535 21.8931 14.535 20.5196C14.535 19.723 14.5079 18.9264 14.5891 18.1298C14.8598 15.3279 17.2146 13.2952 19.8942 13.46C22.4927 13.5973 24.631 15.9048 24.631 18.6792C24.6851 22.4699 24.6851 26.3156 24.6851 30.1339Z" fill="#5555C6"/>
</g>
<defs>
<linearGradient id="paint0_linear" x1="-1.21231" y1="29.5839" x2="23.8501" y2="4.88857" gradientUnits="userSpaceOnUse">
<stop stop-color="#5555C6"/>
<stop offset="0.2399" stop-color="#557FC0"/>
<stop offset="0.5943" stop-color="#54B7B9"/>
<stop offset="0.858" stop-color="#54DBB4"/>
<stop offset="0.9994" stop-color="#54E8B2"/>
<stop offset="1" stop-color="#D62952"/>
</linearGradient>
<clipPath id="clip0">
<rect width="183" height="47" fill="white"/>
</clipPath>
</defs>
</svg>
